<?xml version="1.0" encoding="utf-8"?>
<!-- Generator: Adobe Illustrator 25.0.0, SVG Export Plug-In . SVG Version: 6.00 Build 0)  -->
<svg version="1.1" id="_x38_0df28fc-b448-4013-8ee3-62e531de40a8"
	 xmlns="http://www.w3.org/2000/svg" xmlns:xlink="http://www.w3.org/1999/xlink" x="0px" y="0px" viewBox="0 0 1113.6 844.1"
	 style="enable-background:new 0 0 1113.6 844.1;" xml:space="preserve">
<style type="text/css">
	.st0{opacity:0.1;fill:#2CD483;enable-background:new    ;}
	.st1{fill:#E6E6E6;}
	.st2{fill:#FFFFFF;}
	.st3{fill:#2CD483;}
	.st4{fill:#2F2E41;}
	.st5{fill:#FFB8B8;}
	.st6{fill:#3F3D56;}
	.st7{opacity:0.3;enable-background:new    ;}
	.st8{fill:#CCCCCC;}
</style>
<path class="st0" d="M1047,458.2c-39.2,53.7-26.2,130.4-3.6,191.5c7.6,20.5,16.2,42.1,12.3,64.3c-4.8,27.2-27.4,47.6-50.8,58.7
	c-42.8,20.2-93.2,17-131.5-8.5c-33-22-56.2-58.6-89.9-79.5c-56.3-35-129.4-19.4-192,7.4c-44.3,18.9-92.9,43.3-136.1,25.8
	c-30.4-12.3-50.9-43.6-61.6-77.1c-5.2-16.2-8.8-33.7-19.2-46.3c-6.2-7.5-14.3-12.8-22.7-17.1c-76.4-40-174.6-15-248.7-59.6
	c-50-30.1-81.1-88.6-94.1-150.1s-9.7-126.4-4.6-190.2C8.2,132.1,13.9,83.6,41.2,48C70,10.3,118.4-4.7,161.6,1.2
	s81.9,29.9,115.8,58.6c42.4,35.7,81.4,80.6,134.1,94.2c35.9,9.2,74.1,2.7,111.4-0.2c62.4-4.8,124.6,0.7,186.4,7
	c59.2,6,118.7,12.7,174.8,32.4c39.7,13.9,71.1,40.2,108.4,58.2c24.3,11.7,51.1,14.4,74,29.6c28.3,18.6,53.8,51.7,45.5,91.3
	C1104.1,410,1067.8,429.7,1047,458.2z"/>
<rect x="114.4" y="50.4" class="st1" width="876.6" height="561.4"/>
<rect x="139.4" y="120.9" class="st2" width="826.5" height="457.8"/>
<rect x="114" y="49.9" class="st3" width="876.6" height="37.2"/>
<circle class="st2" cx="141.7" cy="69" r="6.9"/>
<circle class="st2" cx="167.9" cy="69" r="6.9"/>
<circle class="st2" cx="194.1" cy="69" r="6.9"/>
<rect x="214.5" y="168.4" class="st1" width="212.4" height="362.8"/>
<rect x="463.6" y="168.4" class="st3" width="177" height="99.9"/>
<rect x="463.6" y="296" class="st1" width="177" height="107.4"/>
<rect x="463.6" y="431.3" class="st1" width="177" height="99.9"/>
<rect x="678.4" y="168.4" class="st1" width="212.4" height="158.1"/>
<rect x="678.4" y="373" class="st1" width="212.4" height="158.1"/>
<path class="st4" d="M809,337.8v-34c0-25.2,20.4-45.6,45.6-45.6c25.2,0,45.6,20.4,45.6,45.6l0,0v34c0,3.4-2.7,6.1-6.1,6.1h-79
	C811.7,343.9,809,341.2,809,337.8z"/>
<polygon class="st5" points="922.1,780.8 906,785.2 881.1,725.3 904.9,718.7 "/>
<path class="st4" d="M893.2,783.8l31-8.6l0,0l5.4,19.5l0,0l-50.6,14l0,0l0,0C876.1,797.9,882.4,786.8,893.2,783.8z"/>
<polygon class="st5" points="754.3,793.1 737.6,793.1 729.7,728.8 754.3,728.8 "/>
<path class="st4" d="M725.7,788.4h32.2l0,0v20.3l0,0h-52.5l0,0l0,0C705.5,797.4,714.5,788.4,725.7,788.4z"/>
<path class="st5" d="M734.2,433.3c4.5,6.1,13.1,7.4,19.2,2.9c0.6-0.5,1.3-1,1.8-1.6l44.4,20l-4-25L754,414.5
	c-5.9-4.8-14.5-4-19.4,1.8C730.6,421.2,730.4,428.2,734.2,433.3L734.2,433.3z"/>
<path class="st4" d="M826.4,583.4c-13.9,0-28.4-2.1-40.5-8.3c-13-6.5-22.7-18.1-26.8-32.1c-6.3-20,1.6-39.7,9.4-58.7
	c4.8-11.8,9.3-22.9,10.5-33.9l0.4-3.9c1.8-17.5,3.4-32.6,12.1-38.3c4.5-2.9,10.6-3.1,18.6-0.5l74.9,24.3l-2.8,142.3l-0.5,0.2
	C881.3,574.7,854.9,583.4,826.4,583.4z"/>
<path class="st3" d="M808.7,363.6c0,0,36.8-10.9,65.4-6.8c0,0-16.3,89.9-10.9,119.8c5.4,30-94.6,11.6-74.2-17l6.8-34
	c0,0-13.6-13.6-1.4-30L808.7,363.6z"/>
<path class="st4" d="M790.6,580.7l-45.3-8.5l15.8-121.7c1.1-3.4,25.6-80.5,36.7-84.7c8.1-2.8,16.3-5.1,24.7-6.9l1.6-0.3l-9.1,13.6
	l-36.2,86.7L790.6,580.7z"/>
<path class="st4" d="M767,778.2l-58.5-9.8l32.8-134.1l48.9-183.4l0.5,3.3c0,0.2,4.6,24.2,72.4,13.6l0.6-0.1l0.2,0.6l81.9,289.4
	L879,768.7l-60.8-211.1L767,778.2z"/>
<path class="st4" d="M848.1,603.5l0-1c0-1.1,4.1-114.9,2.7-160.6c-1.3-45.9,13.5-85.6,13.7-86l0.1-0.3l0.3-0.1
	c19.2-5.5,35.9,10.9,36.1,11.1l0.2,0.2l-5.5,45.2l23.4,164.3L848.1,603.5z"/>
<circle class="st5" cx="845.2" cy="309.7" r="33.4"/>
<path class="st4" d="M798.2,306.5c0-19.9,16.2-36.1,36.1-36.1h6.8c19.9,0,36.1,16.2,36.1,36.1v0.7h-14.4l-4.9-13.7l-1,13.7h-7.4
	l-2.5-6.9l-0.5,6.9h-48.3V306.5z"/>
<path class="st4" d="M841.9,347.8c-1.4-1.9-1.6-4.4-0.5-6.4c7.2-13.7,17.3-39.1,3.9-54.7l-1-1.1h38.9V344l-35.4,6.2
	c-0.4,0.1-0.7,0.1-1.1,0.1C844.9,350.3,843.1,349.4,841.9,347.8z"/>
<path class="st6" d="M685.2,106.5c-77.6-65.5-193.6-55.6-259,21.9s-55.6,193.6,21.9,259c72.6,61.2,179.9,57.1,247.5-9.5l225.5,190.3
	c7.1,6,17.8,5.1,23.9-2c6-7.1,5.1-17.8-2-23.9l0,0L717.5,352.1C771.8,274.2,757.8,167.7,685.2,106.5z M670.7,333.8
	c-49.1,58.1-135.9,65.5-194.1,16.4s-65.5-135.9-16.4-194.1s135.9-65.5,194.1-16.4h0C712.4,188.7,719.8,275.6,670.7,333.8
	C670.7,333.8,670.7,333.8,670.7,333.8z"/>
<path class="st7" d="M476.6,350.2c-54.8-46.2-64.9-126.8-23.4-185.1c-2.6,2.7-5.2,5.4-7.6,8.3c-49.1,58.1-41.7,145,16.4,194.1
	s145,41.7,194.1-16.4c2.5-2.9,4.8-5.9,6.9-8.9C612.5,392.9,531.4,396.4,476.6,350.2z"/>
<path class="st5" d="M856,491.8c7.3,1.8,14.8-2.7,16.6-10c0.2-0.8,0.3-1.6,0.4-2.4l46.9-13l-19.1-16.6l-41.6,14.9
	c-7.6,0-13.7,6.2-13.7,13.8C845.4,484.8,849.8,490.3,856,491.8z"/>
<path class="st4" d="M875.5,484.9l-2.9-27.1l39.2-21.6l-25.5-30.9l4.2-34.7l10.4-4.4l0.3,0.4c4.9,6.3,47.8,61.6,47.8,68.5
	c0,7-8.2,27.7-19.4,33.3c-10.8,5.4-51.5,15.9-53.2,16.4L875.5,484.9z"/>
<path class="st8" d="M1078.6,810.5H559.9c-0.8,0-1.4-0.6-1.4-1.4s0.6-1.4,1.4-1.4h518.7c0.8,0,1.4,0.6,1.4,1.4
	S1079.4,810.5,1078.6,810.5z"/>
</svg>
