<svg xmlns="http://www.w3.org/2000/svg" viewBox="0 0 256.42 420.27"><defs><style>.cls-1,.cls-10{fill:#f2f2f2;}.cls-1{opacity:0.03;}.cls-2{fill:#333347;}.cls-3{fill:#ffb7b7;}.cls-4{fill:#2f2e41;}.cls-5{fill:none;stroke:#000;stroke-miterlimit:10;stroke-width:0.4px;}.cls-10,.cls-5{opacity:0.5;}.cls-6{fill:#2abc6c;}.cls-7{fill:#2cd483;}.cls-8{fill:#cbcbcb;}.cls-9{fill:#3f3d56;}</style></defs><g id="Layer_2" data-name="Layer 2"><g id="display"><g id="farm"><ellipse class="cls-1" cx="128.21" cy="396.58" rx="128.21" ry="23.69"/><path class="cls-2" d="M166.56,215.34s17.16-5.07,17.23-11.63-30.13-19-57.18-19.56c-20-.39-47.19,45.48-23,32.56Z"/><path class="cls-3" d="M126.69,93.6s5,7.65,5.44,9.7c0,0-8.21,12.86-16.88,5.68,0,0,2.84-6.63,1.81-11.91Z"/><path class="cls-3" d="M104.47,74s1.86,14.59,2.42,15.85,5.28,10.26,8.83,10.18,14.2-4.34,15.93-10.57,1.23-6.27,3.29-7.42,1.66-6.55,1.66-6.55L136,65.91l-5.28-8.12-12.7.39-11.83,5.36Z"/><path class="cls-3" d="M179.19,364.13s4.32,3.15,3.47,16.3c0,0,5.05,12.09,16.41,1.05,0,0,.21-3.47.42-5.89s-4.73-5-4.63-13.35C194.86,362.24,184.45,358,179.19,364.13Z"/><path class="cls-3" d="M73.91,359s3.26,6.62-6.38,11.36c0,0,8.28,16.17,20,4.73,0,0-.16-8.91,2.53-13.17C90.09,362,82.12,357.29,73.91,359Z"/><path class="cls-4" d="M104.47,74s-2-7.1-1.45-10.65c.64-3.76,2-7,6.79-9.31s5.28-4.26,9.62-3.94,4.34,1.73,6.15,1.81,2-2.68,4.73-.87c19.17,12.86,5.13,16.72,3.16,19.17,0,0-5.68-5.21-5.29-9,0,0-2.66,5.68-8.43,5.68S107.1,62.2,104.47,74Z"/><path class="cls-3" d="M94.53,93.52S90.77,83,87.6,70.38s-4.54-20.72-6.22-25.56-4.1-13.35-2-21.87,1.37-10.73-.1-14.31-3-7-4.1-8.09S69.6-.09,68.24,2.23s-5.89,8.1-4.84,12.51,3.68,14.41,5.36,24.19,3.16,17.57,3.37,24.3,3.26,21.35,5.15,27A32.06,32.06,0,0,1,78.88,101Z"/><path class="cls-5" d="M125.92,76.3s5.39,0,6.89-.82,2.79-2.54,4.81-1.78"/><path class="cls-3" d="M142.58,43.8,124.19,32.86a88.51,88.51,0,0,0,2.52,8.49c3.58,9.89,12,46.8,12,46.8,9.26,0,17.09-8.67,17.09-8.67-.22-4.47-6.47-15.94-9.15-24C145.62,52.44,144.17,48.26,142.58,43.8Z"/><path class="cls-6" d="M158,198.32s15.3,2.9,7.1,6.89S158,198.32,158,198.32Z"/><path class="cls-7" d="M107,209.23s-2,1.16-2-1.51V190.54l6.68-82.93a14,14,0,0,1,3.29-.42c1.15.11,6.94,7,16.72-5,0,0,2.42-2.31,9.52,1.26l19.88,81.15,3,9.72s8.31,9.15.9,10.94c0,0,3.78-2.94,0-2.94,0,0-6.73,5.15-18.25,3.68S119.24,206.58,107,209.23Z"/><path class="cls-4" d="M72.44,360.13c3.26-.52,14.52.11,19.14,4.1,0,0,14.68-32.34,19.88-54s14.67-28.4,22.72-64.84c0,0,15,22.09,21.77,38.18s6.47,36.91,13.25,52.85a157.72,157.72,0,0,1,9.31,29.34s2.21-4.26,21.61-1.89c0,0-.16-15.46-5.36-36.29s-13.88-57.89-17.51-74.3-9-32.86-12.94-44.91c0,0-44.33-3.37-59.47,4.68,0,0-7.26,19.67-12.1,49.54-1.9,11.73-8,35.33-13,57.63C74.81,341.87,72.44,360.13,72.44,360.13Z"/><path class="cls-8" d="M106.57,212.28v-6.12l6.62-1.58c4.21-1,8.21-3.47,18.89-3.26s11.77-.26,18,1,10.36,1.37,15,0v4.2a1.85,1.85,0,0,1-2.17,1.86c-1.61-.1-18.83-1.05-28.39-.44S116.83,208.57,106.57,212.28Z"/><path class="cls-9" d="M102.43,109.33c-1.1-3.35.35-8-3.55-6.7l-1.3-3-19,8.25s3.11,6.89,3.53,9.31c0,0-1.58.74-1.48,1.74s.53,1.94,4,8.46a163.54,163.54,0,0,1,9,21.2s-3.94,0-3.15,3.15,3.26,6.84,3.89,9.15c0,0-2.52,1.63-2.31,4.31s2.15,19.62,2.68,23.62,2.47,18.35-1.37,24.18,1.48,8.54,10.23,3.72c0,0-8.94,4.87-9.1,0s18.07-22.3,18.07-22.3-.79-16.1,2.44-22.88,5.76-9.15,4.34-22.72c0,0-2-24-7.89-29.26A58,58,0,0,1,102.43,109.33Z"/><path class="cls-4" d="M106.15,119.65a23.15,23.15,0,0,1,2.63-2.68s-4.26-5-4.31-8.94c0,0,5.34-.18,8.92-2.72,0,0,.24,9.94,1.5,13.53s1.2,4.18,2.72,6.76,0,11.5,1.42,20.18C119,145.78,110.73,122.23,106.15,119.65Z"/><path class="cls-9" d="M166.56,215.34s15.58-6.13,16.21-11.39-24.3-9.26-31-10.41a63.92,63.92,0,0,0-7.15-9.68c-4-4.31-10.73-7.68-12.09-19.46s-2.21-20.29,0-30.71,4-23.87,4-23.87,3.26-10.94,1.9-16.09c0,0,15.56-10.73,20.29-10.2,0,0,7.26,26.4,7.47,31s-2.31,11.36-5.68,17.36,0,11.34.95,13.87,1.36,9.46.73,13.63c-1.78,12,1.78,14.27,16.52,30.66C193.71,206.79,181.28,211,166.56,215.34Z"/><path class="cls-4" d="M135.18,93.94s11.78.37,25.34-11.78L157.9,74.9s-2.53,3.74-8.84,6-8.68,4.94-10.94,6-2.94.1-2.94.1S134.65,92.57,135.18,93.94Z"/><path class="cls-4" d="M76.52,107.87s4.26,1.35,9.7-1.42a119.13,119.13,0,0,0,12.46-7.8l-2.92-8.44s-2.13,3.47-9,5.6-8.12,2.28-10.25,2Z"/><path class="cls-4" d="M131.32,152.29s-2.9-14-.61-26.12,3.74-21,4.23-25.55c0,0,3.23-1.5,3.76-2.84a10,10,0,0,1,1.55,4.81c-.08,2.29-3,4,.55,10.25C140.8,112.84,131.37,144.87,131.32,152.29Z"/><path class="cls-4" d="M88.43,372.38c2.14-2.86.37,10.78,1.1,13.73s3,3.21-2,6.36-9.54,3.39-24.61,2.37-20.19.08-24-1.58-6.62-1.42-4.18-7.89,2.21-5.83,9.07-5.83,17.21-4.89,18.47-8.76,3.54-3.71,5.2-3.39.15,1,.71,2.21.79-.48,1.34-.16S79.52,384.32,88.43,372.38Z"/><path class="cls-4" d="M191.92,408c13.4.43,20.35-2.21,19.56-9.39s-7.33-11.35-7.73-14.9-.95-5.68-2.37-5.68-.46,3.47-1.88,2.6.7-3.71-5.69-3.47-5.84,1.5-6,2.92-1.34,3.31-3.47.71-1.34-4.18-2.84-4-2.69,6.64-4.5,9.35a9.19,9.19,0,0,0,0,10.44C179.53,400,179.53,407.62,191.92,408Z"/><path class="cls-10" d="M121.32,81.65c2.88.06,4.46-3.08,4.77-6.12S123,72,120.77,72.34s-4.34.87-4.26,3.51S117.57,81.57,121.32,81.65Z"/><path class="cls-10" d="M106.89,81.65c2.59.25,5.54-2.27,5.36-5-.21-3.21-1.77-3.56-4.89-3.55s-3.79,2.64-3.55,4.28S104.05,81.37,106.89,81.65Z"/><path class="cls-5" d="M112.16,75.83s3.09-.61,4.35,0"/></g></g></g></svg>