<svg xmlns="http://www.w3.org/2000/svg" viewBox="0 0 243.88 356.94"><defs><style>.cls-1{fill:#f2f2f2;opacity:0.03;}.cls-2{fill:#2abc6c;}.cls-3{fill:#ffb7b7;}.cls-4{fill:#2f2e41;}.cls-5{fill:#2cd483;}.cls-6{fill:none;stroke:#f2f2f2;stroke-miterlimit:10;stroke-width:3px;}</style></defs><g id="Layer_2" data-name="Layer 2"><g id="display"><g id="poon"><ellipse class="cls-1" cx="121.94" cy="326.86" rx="121.94" ry="30.08"/><path class="cls-2" d="M158.11,164.54c.53,0,5.18,3.07,5.18,3.07s1.34,2.89-2,4.43-60.15,2.88-60.15,2.88-6.68-3.12,1.68-9S158.11,164.54,158.11,164.54Z"/><path class="cls-3" d="M165.31,286.71s.15,10.55-1.63,14.65c0,0,12.84,17.19,20.81,1L179.35,282Z"/><path class="cls-3" d="M86.87,300.06s-2.86,11-2.7,19.36c0,0-11.13,11.56-19.47-3.26,0,0,7.18-9,8.6-17.62Z"/><path class="cls-3" d="M179.44,88.06s5.25,21,6.21,28.27,2.56,30.26-19.57,21.55C144.4,129.35,145,122.4,134,119.52a1.92,1.92,0,0,1-1.09-.78A23.69,23.69,0,0,0,118.07,109a1.74,1.74,0,0,1-1.1-.73l-3.6-5.33a2.47,2.47,0,0,1-.35-2l3.07-12.1a2.21,2.21,0,0,1,1.79-1.63c2.94-.47,9.52-1.35,11.3-.11,2.32,1.61,2.16,12.42,8.46,16.55s22.23,13.41,29.45,13.07c0,0-4-14.07-5.17-16.19Z"/><path class="cls-3" d="M87.26,96.24s-7.61,17.18-10.18,28.29S73.16,142.9,79.89,147,94,143.27,96.61,135.6c0,0,10.9,1.68,13.54-5.91a41.59,41.59,0,0,0,2.1-14,1.74,1.74,0,0,0-.9-1.48c-2.24-1.21-8.6-3.45-16.26,4.25,0,0-2.88,3,1.46-11.24Z"/><path class="cls-3" d="M141.86,57.34s-5.12-6.4-5-20.44L118.63,50.28s-.43,7.34-6,10.88C112.61,61.16,117.68,94.09,141.86,57.34Z"/><path class="cls-4" d="M136.85,36.91a50.85,50.85,0,0,0,.29,6c2.55,0,6.37-11.1,7.79-15.52a29.66,29.66,0,0,0,1.53-13.72c-.7-4.92-6.93-9.21-9.39-10.52A35.59,35.59,0,0,0,124.62.06c-3.84-.07-6.55-.53-12.7,2.85s-7,11.66-6.51,16.39S110,30.87,110,30.87s13.26,7.51,20.27,10.9Z"/><path class="cls-3" d="M121.17,54.31c6.11.09,11.08-5,15.68-16.48,0,0,3.16.45,4.35-8.59a1.44,1.44,0,0,0-2.26-1.37c-.94.66-1.84,1.18-2.13,1-.69-.39,1-5.93-2.26-9.62s-10.43-1.68-15.85-.62-9.38-.84-10.17,3.44a13,13,0,0,0,1.59,8.19s-2.07,6.43.76,11.85S115.77,54.22,121.17,54.31Z"/><path class="cls-4" d="M69.64,301s12.66-2.44,19.53,2.18c0,0,11-27.81,13.7-37.91a85.18,85.18,0,0,0,2.9-26c-.23-8.25,24.47-42.64,24.47-42.64S146.7,242.18,149,254.29s11.74,32.86,14,35.74a35.57,35.57,0,0,1,18.8-6.18s-3.19-34.38-6.19-46.73-8.81-31.58-9.66-44.94-7-39.65-7-39.65l-53.16,5s-18.21,44.33-22.46,57.29S78.78,234,77.52,249.45,69.64,301,69.64,301Z"/><path class="cls-4" d="M146.9,317.44s-2.55,11.68,14.35,5.76,27.18-8.63,26.28-16.43-1.1-11.57-3.36-10.88.16,4.18-3,6.43-5.73,2.9-8,2.54-.81-3.94-6.5-4.26-6,.17-7.63,4S154.5,312.77,146.9,317.44Z"/><path class="cls-4" d="M45.26,334.94s8,3.28,11.13,2.8,20.67-6.13,23.57-6.95,7-4.21,7.11-10.55,1.27-6.73-1.65-7.16.17,4.5-5,5.58-7.52-.65-8.74-2.8-2-2.56-4.55-3.05S59.76,315,52.73,322,45.5,325.29,45.26,334.94Z"/><path class="cls-5" d="M99.38,173.53s-3.27-3.36,5.1-3.78,13.87,2.53,24.37,1.64c11.41-1,39.77-7.73,33.84-.28,0,0,7.05-5.35-2.73-37.14l-3.83-16s2.11-16.2.56-25.64l4.89,12.23s15-12.71,20.39-14.93c0,0-8.58-22.91-20.09-28.88a56.65,56.65,0,0,0-21.56-6.35S135.92,68.64,126.14,69s-11.84-10-11.84-10S101.7,61,95.2,71.71,84.75,98.22,84.75,98.22s9.76,12.33,11.35,13l3.24-6.71s5.4,16,4.78,19.75a36.53,36.53,0,0,1,1,6C107.55,152.27,90.37,170.34,99.38,173.53Z"/><path class="cls-3" d="M162.56,116c-8-2.16-19.65-9-24.82-12.39-6.31-4.14-6.14-15-8.46-16.56-1.78-1.24-8.36-.36-11.3.11a2.21,2.21,0,0,0-1.79,1.63l-3.08,12.1a2.51,2.51,0,0,0,.36,2l3.6,5.33a1.75,1.75,0,0,0,1.1.74A23.65,23.65,0,0,1,133,118.73a1.92,1.92,0,0,0,1.09.78c11,2.88,10.41,9.83,32.09,18.36a32.78,32.78,0,0,0,3.11,1.06C167.72,133.8,164.24,122.05,162.56,116Z"/><path class="cls-3" d="M112.14,115.64a1.7,1.7,0,0,0-.9-1.48c-1.81-1-6.32-2.64-12,.85-.11,5.84-.29,16-.36,20.74,3.35,0,9.33-.7,11.2-6.07A41.33,41.33,0,0,0,112.14,115.64Z"/><path class="cls-4" d="M136.48,21.87c-.78-1.58-4.55-6.79-4.55-6.79s-8.86-.88-11.3-.35-8.08.95-8.8,1.6-1.21.93-2.06,1.66a6.8,6.8,0,0,0-2,3.09c0,.58.22,4.47.29,5.63,0-.49.25-1.36,1.65-1.62h.51a4.52,4.52,0,0,1,1.89-2,5.41,5.41,0,0,0-.2,1.63.33.33,0,0,0,.34.3l2.16,0s.69-.19.32-1.68l1,1a.63.63,0,0,0,.43.21l2.65-.27a2,2,0,0,0,1.79-1.5,3.18,3.18,0,0,0-1.4-2.93s2.86,1.62,3.38,3.19a1.34,1.34,0,0,0,1.28.86H126s.48-.28,0-1.68c0,0,2,1.48,1.78,2l3.71.55s2.42-2.82,1.38-4.42c.86.94,3.09,3.52,1.67,4.78l1.95-.65A2.43,2.43,0,0,0,136.48,21.87Z"/><path class="cls-4" d="M108.09,26.71a2.4,2.4,0,0,0,0,.33S108.1,26.92,108.09,26.71Z"/></g><path class="cls-6" d="M122.65,110.31s-5.76,10.26-11,12.82"/><path class="cls-6" d="M97.73,135.75s-10.42,33.71-24.66,42.94-30.73,53.54-30.73,53.54"/><path class="cls-6" d="M131.55,92.75s14.63-28.22,19.35-36.94"/></g></g></svg>