<svg xmlns="http://www.w3.org/2000/svg" viewBox="0 0 283.93 370.52"><defs><style>.cls-1,.cls-10{fill:#f2f2f2;}.cls-1{opacity:0.03;}.cls-2{fill:#ffa9ac;}.cls-3{fill:#24ae6b;}.cls-4{fill:#ffb7b7;}.cls-5{fill:#2f2e41;}.cls-6{fill:#e6e6e6;}.cls-7{fill:#b3b3b3;}.cls-11,.cls-8,.cls-9{fill:none;stroke-miterlimit:10;}.cls-8{stroke:#f2f2f2;stroke-width:3.62px;}.cls-9{stroke:#b3b3b3;stroke-width:3.02px;}.cls-11{stroke:#24ae6b;stroke-width:0.6px;}</style></defs><g id="Layer_2" data-name="Layer 2"><g id="display"><g id="zach"><ellipse class="cls-1" cx="141.97" cy="338.2" rx="141.97" ry="32.32"/><g id="Layer_2-2" data-name="Layer 2-2"><path class="cls-2" d="M94.46,44.57s5.76,13.5-4.19,20.59l24.54,20.48L121,60.28s-4.4-3.08-3.69-7.39S94.46,44.57,94.46,44.57Z"/><path class="cls-3" d="M76.87,340.37s-1.78,5.63-4.48,7.09-11.17-2.31-17.64,1.08S44,349,43.8,346a11.25,11.25,0,0,1,.08-5.38l18.35-8.57L76,338Z"/><path class="cls-4" d="M209.79,46.52v.29s-4.28,5.58-7.63,7.33c-4.08.3-11.56,11.09-16.16,17s-7.58,3.32-7.58,3.32l-2.77,1.31,10.1,15.69s1-.38,2.69-1.15,4.47-1,5.63-3.93c0,0,17.11-23.74,19.57-27.67a37.55,37.55,0,0,1,3.53-5.15C214.62,51.29,212.16,48.93,209.79,46.52Z"/><polygon class="cls-4" points="74.02 314.43 70.26 319.29 56.83 314.84 62.91 308.1 74.02 314.43"/><path class="cls-4" d="M208.42,287.43l9.94-10s-9-3.83-9.08-8.54l-7.85,2.61-6.24,8.25s3.46,2.08,3.54,7.7Z"/><path class="cls-5" d="M209.76,268.65s-18.5-27.34-31.09-44S148.91,169,148.91,169l-3.12-13.89-20.71-5.29L78.43,179l-.41,7.8s7.4,22,5.7,32.68,3.86,27.29,3.86,27.29c-6,2.62-15,31.14-15.41,35.3s-10.49,27.36-10.49,27.36L77,316.94S88.3,303.17,101,277.89c0,0,15.31-21,14.59-38.84s5.28-43.26,5.28-43.26,16.91,19,17.64,21.17,10.86,8.94,16.33,22c1.34,13.88,37.67,42.34,37.67,42.34C200.92,280.15,199.38,273.12,209.76,268.65Z"/><path class="cls-6" d="M82,127.43s-1.15,15.49-.46,17.65-6.94,35.45-7.25,37.22,2,7.63,2,7.63c11.63.23,41.38-20.19,41.38-20.19,0-2.16,2.82-15,2.82-15l-.61-7.78.93-3.51.88,4.78.43,4.47c-.31,6,17.47,16.9,17.47,16.9,1.21.72,15.09-1.34,15.09-1.34a255.74,255.74,0,0,1-16.91-26.71c1.75-6.27-.51-31.14-.51-31.14,4.53-7.29,4.07-22.66,4.07-22.66l33.12,2.88,6.93-.6c-11.47-10-7.21-17.18-7.21-17.18-8.87-5-47.94-14.14-47.94-14.14l-2.62,21-6.41-2.89-3.47,2.93-4.1-.85-5.48,6.53L86.8,69.24c-16.91-.6-26,19.32-27.26,23.55s-6,13.88-6,13.88l-5.24,12.07,22.34.47,2.49-9,6.4-7.09-8.09-.31S78.1,122.65,82,127.43Z"/><path class="cls-7" d="M184.9,90.17c-6.9-10.27-6.85-15-6.23-17a1.29,1.29,0,0,0-.83-1.61l-6.27-2.16a1.31,1.31,0,0,0-1.67.81,1.28,1.28,0,0,0-.06.33,33.15,33.15,0,0,0,6.23,21.26,1.31,1.31,0,0,0,1.07.56,66.81,66.81,0,0,0,6.8-.16,1.31,1.31,0,0,0,1-2Z"/><path class="cls-7" d="M87.26,68.46l2.36-4A1.15,1.15,0,0,1,91.19,64l.12.08,18.16,13.8a1.15,1.15,0,0,1,.21,1.61h0l-4.44,5.69a1.16,1.16,0,0,1-1.62.19l-.08-.07L87.46,69.87A1.15,1.15,0,0,1,87.26,68.46Z"/><path class="cls-7" d="M122.56,58.68h2.36a1.16,1.16,0,0,1,1.15,1.16s0,.07,0,.11l-2,19.26a1.14,1.14,0,0,1-1.26,1l-.2,0-5.87-1.69a1.14,1.14,0,0,1-.78-1.42v0l5.48-17.56A1.15,1.15,0,0,1,122.56,58.68Z"/><path class="cls-8" d="M226.93,29.18,79.42,175.76,67.14,195.29a112.23,112.23,0,0,0-8.21,19.32c-2.93,9.23-2.68,12.76-6.58,19.31-2.67,4.49-4,4.83-8.45,11.51a111.1,111.1,0,0,0-7.38,12.95C33.19,265,24.63,275.33,2,292.09"/><path class="cls-9" d="M113.7,79.8s6.71,21.2,6.55,30.6-.68,37.88.66,43.06"/><path class="cls-4" d="M49.21,119.6S47,135,50,136.73s8.31,3.7,21.67,4.73,36.22,2.47,36.22,2.47,7.51-.88,9.35,1.49,4.52,3.4,10.79-.37l8.59-9.4-1.33-9s-2.21.67-7.14-1.33-11.25,2-14.08,3-2.41-.6-9.76,1.44c-16.15-1.64-21.7-5.72-21.7-5.72-6-3.54-13.88-2-13.88-2l.6-2"/><path class="cls-7" d="M45.55,118c.65-2.41,2.42-8.14,5-10.59a1.05,1.05,0,0,1,1-.26l21,5.08a1.07,1.07,0,0,1,.79,1.29v0l-1.57,5.72a1.07,1.07,0,0,1-1,.78c-3.7,0-19.12,0-24.39-.71a1.07,1.07,0,0,1-.91-1.2Z"/><path class="cls-10" d="M75.51,321.28A46.21,46.21,0,0,0,76,333.65a2.07,2.07,0,0,0,.18.47,8,8,0,0,1,1.3,3.84,1.38,1.38,0,0,1-1.29,1.45,1.36,1.36,0,0,1-.88-.25c-12.93-9.2-27.3.17-30.79,2.72a1.4,1.4,0,0,1-1.61,0h0a1.39,1.39,0,0,1-.61-1.36c2.15-12.08,11.2-22.24,13.8-25a1.36,1.36,0,0,1,1.4-.36c1.11.34,3.82.53,9.93-1.64a1.37,1.37,0,0,1,1.77.79s0,.08,0,.12c.49,1.71,1.65,4.33,4.23,4.42a1.4,1.4,0,0,1,1,.5l.7.87A1.39,1.39,0,0,1,75.51,321.28Z"/><path class="cls-11" d="M53.71,333.63a12.15,12.15,0,0,1,7.74-5,11.76,11.76,0,0,1,6.55.81"/><path class="cls-11" d="M57.33,327.08a11.11,11.11,0,0,1,6.43-3.55,10.9,10.9,0,0,1,6.2.85"/><path class="cls-11" d="M56.48,322.8a9.79,9.79,0,0,1,7.09-3.27,9.3,9.3,0,0,1,5.36,1.73"/><path class="cls-11" d="M58.17,332.33a34.85,34.85,0,0,1,10.64-7.55"/><path class="cls-11" d="M59.53,328.23,65,332.66"/><path class="cls-11" d="M58.6,320.37l9.8,6.21"/><path class="cls-11" d="M68.5,319.29a17.63,17.63,0,0,1-3.27,2.42c-1.82,1-2.72,1.11-4.16,2a12.39,12.39,0,0,0-3.74,3.43"/><path class="cls-3" d="M215.71,298.23c6.4-2.52,13.48-6.68,19.68-9.44,7.85-3.49,5.66-2.93,7.14-8.07a4,4,0,0,0-.68-3.76C236.62,288.12,226.11,293.09,215.71,298.23Z"/><path class="cls-10" d="M236.32,273.77c-7.65,2.62-21.92,1.49-21.92,1.49s3.22,2.88.61,2.87-3.91.52-5.55,4.94c-5.36,5.79-10.6,2.78-10.6,2.78s.26,6.32-1.33,8.73,5.75,7,13.28,5.24a37.3,37.3,0,0,0,4.93-1.6c10.4-5.15,20.9-10.11,26.13-21.27C240.1,274.66,236.32,273.77,236.32,273.77Z"/><path class="cls-11" d="M218.52,274.86a3.62,3.62,0,0,1,3.35,3.12"/><path class="cls-11" d="M220.87,274.63a4.89,4.89,0,0,1,5.16,2.62"/><path class="cls-11" d="M226.77,273.55c.3,0,2.57.19,3.46,1.85a3.1,3.1,0,0,1,.29.89"/><path class="cls-11" d="M229.25,273.69a4,4,0,0,1,4.49,3.16"/><path class="cls-4" d="M222.21,50.13c4.77-1.93,4-.54,5.78-5.32,0-7,3-10.71,3-10.71L226.78,28c-5.32-.38-9.79,2.62-12.49,4.62-2.7.16-7,10.1-5.78,10.95,1,.67,1.21,2.28,1.29,2.94,2.37,2.41,4.83,4.77,7.4,7A12.84,12.84,0,0,1,222.21,50.13Z"/><path class="cls-4" d="M96.23,46a23.69,23.69,0,0,1,4.22,3,9.85,9.85,0,0,0,3.62,2.23c8.1,2.93,13.24,4.64,15.83.84,3.34-8.45,3.44-13,4.57-14.84s.61-6.84-.82-9.82c-.92-4.26,1.64-5.39.93-7.76S105.15,13,105.15,13l-7.51,6L95.19,32.75s-3.47-2.53-6.69-1.11c-.5.22,1,1.66.36,2,.31,4.32-1.08,3.14,1.85,5.76A11.34,11.34,0,0,1,93.43,43,6.93,6.93,0,0,0,96.23,46Z"/><path class="cls-5" d="M88.45,34.7s-5.6-8.32-5.5-12.58,2.31-16.84,16.1-20.8a10,10,0,0,1,10.87.6c8.78,2.21,16.75,6.42,16.85,11.77s-1.08,6.93-5.6,6.06-10.26-5.39-15.77-4.11-6,7-5.59,12.34c0,0-5,0-3.24,8.46C96.57,36.41,90,29.12,88.45,34.7Z"/></g></g></g></g></svg>