<svg xmlns="http://www.w3.org/2000/svg" viewBox="0 0 1256.9 1209.35"><defs><style>.cls-1{fill:#27ba73;}.cls-2{fill:#24ae6b;}.cls-3{opacity:0.2;}.cls-4{fill:#1e925a;}.cls-5{fill:#22a566;}.cls-6{fill:#2cd483;}.cls-7{fill:none;stroke:#f2f2f2;stroke-miterlimit:10;stroke-width:3px;}</style></defs><g id="Layer_2" data-name="Layer 2"><g id="display"><g id="zigma_iso"><polygon id="bottom" class="cls-1" points="119.01 837.95 0 708.62 616.69 1080.21 736.62 1209.35 119.01 837.95"/><polygon id="bottom-2" data-name="bottom" class="cls-1" points="907.32 646.21 1075.98 746.56 956.24 617.07 786.68 515.64 907.32 646.21"/><polygon id="right" class="cls-2" points="736.62 1209.35 917.6 963.28 797.54 833.53 616.69 1080.21 736.62 1209.35"/><polygon id="right-2" data-name="right" class="cls-2" points="1256.9 501.81 1135.91 372.25 956.24 617.07 1075.98 746.56 1256.9 501.81"/><polygon id="bottom-3" data-name="bottom" class="cls-1" points="774.79 487.04 797.89 500.34 826.5 461.27 655.25 357.78 774.79 487.04"/><polygon id="bottom_shadow" data-name="bottom shadow" class="cls-3" points="655.25 357.78 805.24 490.3 797.89 500.34 774.79 487.04 655.25 357.78"/><polygon class="cls-4" points="727.32 693.81 580.84 783.75 415.06 683.26 608.37 563.79 727.32 693.81"/><polygon class="cls-5" points="727.32 693.81 608.37 563.79 655.25 357.78 774.79 487.04 727.32 693.81"/><polygon id="fore" class="cls-6" points="628.22 730.87 797.54 833.53 616.69 1080.21 0 708.62 417.56 449.69 518.97 0.71 1135.91 372.25 956.24 617.07 786.68 515.64 826.5 461.27 655.25 357.78 608.37 563.79 415.06 683.26 586.48 787.17 628.22 730.87"/></g><line class="cls-7" x1="1135.91" y1="372.25" x2="378.93" y2="1026.83"/><line class="cls-7" x1="520.42" y1="0.71" x2="17.06" y2="930.83"/></g></g></svg>